<svg width="50" height="50" viewBox="0 0 50 50" fill="none" xmlns="http://www.w3.org/2000/svg">
<path d="M23.3611 32.0351L33.9619 18.2129L26.7635 34.0788C26.3079 35.0827 25.1238 35.528 24.1199 35.0716C23.1151 34.6153 22.6714 33.4304 23.127 32.4256C23.1897 32.2867 23.2722 32.151 23.3611 32.0351Z" fill="black"/>
<path d="M45.7484 43.7208H4.25317C3.83889 43.7208 3.45476 43.5057 3.2373 43.1525C1.15 39.743 0 35.4541 0 31.0715C0 17.4017 11.2151 6.28027 25.0008 6.28027C38.7849 6.28027 50 17.435 50 31.1461C50 35.543 48.881 39.6946 46.7635 43.1517C46.5468 43.5057 46.1619 43.7208 45.7484 43.7208ZM4.93413 41.3382H45.0675C46.7389 38.3723 47.619 34.8636 47.619 31.1461C47.619 18.7485 37.473 8.66202 25.0008 8.66202C12.5278 8.66281 2.38095 18.7144 2.38095 31.0715C2.38095 34.7771 3.28413 38.3954 4.93413 41.3382Z" fill="black"/>
<path d="M25.0548 13.9382C24.3976 13.9382 23.8643 13.4049 23.8643 12.7469V7.98106C23.8643 7.32313 24.3976 6.78979 25.0548 6.78979C25.7127 6.78979 26.2452 7.32313 26.2452 7.98106V12.7469C26.2452 13.4041 25.7127 13.9382 25.0548 13.9382Z" fill="black"/>
<path d="M6.85953 30.2192H1.30397C0.646828 30.2192 0.113495 29.6859 0.113495 29.0279C0.113495 28.37 0.646828 27.8367 1.30397 27.8367H6.85953C7.51667 27.8367 8.05 28.37 8.05 29.0279C8.05 29.6859 7.51667 30.2192 6.85953 30.2192Z" fill="black"/>
<path d="M48.1294 30.2192H42.5738C41.9167 30.2192 41.3833 29.6859 41.3833 29.0279C41.3833 28.37 41.9167 27.8367 42.5738 27.8367H48.1294C48.7865 27.8367 49.3198 28.37 49.3198 29.0279C49.3198 29.6859 48.7865 30.2192 48.1294 30.2192Z" fill="black"/>
</svg>
