<svg width="28" height="6" viewBox="0 0 28 6" fill="none" xmlns="http://www.w3.org/2000/svg">
<path d="M25.2 0.199803C23.6628 0.199803 22.4 1.45514 22.4 2.9998C22.4 4.54447 23.6628 5.7998 25.2 5.7998C26.7372 5.7998 28 4.54447 28 2.9998C28 1.45514 26.7372 0.199803 25.2 0.199803ZM25.2 1.13314C26.2341 1.13314 27.0667 1.96007 27.0667 2.9998C27.0667 4.0386 26.2341 4.86647 25.2 4.86647C24.1659 4.86647 23.3333 4.03954 23.3333 2.9998C23.3333 1.96007 24.1659 1.13314 25.2 1.13314ZM14 0.199804C12.4628 0.199804 11.2 1.45514 11.2 2.9998C11.2 4.54447 12.4628 5.7998 14 5.7998C15.5372 5.7998 16.8 4.54447 16.8 2.9998C16.8 1.45514 15.5372 0.199804 14 0.199804ZM14 1.13314C15.0341 1.13314 15.8667 1.96007 15.8667 2.9998C15.8667 4.0386 15.0341 4.86647 14 4.86647C12.9659 4.86647 12.1333 4.03954 12.1333 2.9998C12.1333 1.96007 12.9659 1.13314 14 1.13314ZM2.8 0.199804C1.2628 0.199804 -1.89911e-07 1.45514 -1.22392e-07 2.9998C-5.48724e-08 4.54447 1.2628 5.7998 2.8 5.7998C4.3372 5.7998 5.6 4.54447 5.6 2.9998C5.6 1.45514 4.3372 0.199804 2.8 0.199804ZM2.8 1.13314C3.83413 1.13314 4.66667 1.96007 4.66667 2.9998C4.66667 4.0386 3.83413 4.86647 2.8 4.86647C1.76587 4.86647 0.933333 4.03954 0.933333 2.9998C0.933333 1.96007 1.76587 1.13314 2.8 1.13314Z" fill="black"/>
</svg>
