<svg width="50" height="44" viewBox="0 0 50 44" fill="none" xmlns="http://www.w3.org/2000/svg">
<path d="M49.3065 36.1544L28.9315 3.00615C28.0856 1.62821 26.6147 0.806396 25.0005 0.806396C23.3843 0.806396 21.9145 1.62821 21.0685 3.00615L0.693545 36.1544C-0.194854 37.5999 -0.232191 39.3475 0.595587 40.8284C1.42238 42.3093 2.92859 43.1936 4.62451 43.1936H45.3754C47.0703 43.1936 48.5775 42.3093 49.4043 40.8284C50.2322 39.3464 50.1949 37.5999 49.3065 36.1544ZM47.6327 39.837C47.1682 40.6669 46.3253 41.1615 45.3754 41.1615H4.62451C3.67459 41.1615 2.83162 40.6669 2.36724 39.837C1.90392 39.0073 1.92508 38.029 2.42279 37.2194L22.7977 4.06914C23.2712 3.2979 24.0949 2.83752 25.0004 2.83752C25.9049 2.83752 26.7287 3.2979 27.2021 4.07012L47.5781 37.2184C48.0749 38.028 48.0951 39.0073 47.6327 39.837ZM25.1186 8.57257C24.5573 8.57257 24.103 9.02682 24.103 9.5881V26.8588C24.103 27.4201 24.5573 27.8745 25.1186 27.8745C25.6799 27.8745 26.1342 27.4201 26.1342 26.8588V9.5881C26.1332 9.02682 25.6789 8.57257 25.1186 8.57257ZM25.1186 30.9231C24.5573 30.9231 24.103 31.3775 24.103 31.9387V36.002C24.103 36.5633 24.5573 37.0176 25.1186 37.0176C25.6799 37.0176 26.1342 36.5633 26.1342 36.002V31.9387C26.1332 31.3774 25.6789 30.9231 25.1186 30.9231Z" fill="black"/>
</svg>
