<svg width="64" height="64" viewBox="0 0 64 64" fill="none" xmlns="http://www.w3.org/2000/svg">
<path d="M14.7594 7.3612C14.5555 7.36161 14.3549 7.41254 14.1756 7.50953C13.9964 7.60652 13.8439 7.74652 13.732 7.91692L3.87507 22.694C3.75068 22.8797 3.67916 23.0957 3.66818 23.319C3.65719 23.5423 3.70716 23.7643 3.81272 23.9613C3.91828 24.1584 4.07545 24.3229 4.26741 24.4375C4.45936 24.552 4.67886 24.6122 4.90239 24.6115H7.36843V50.4098C7.36773 50.4339 7.36773 50.458 7.36843 50.482V52.9456C7.36843 53.3772 7.45615 53.7865 7.59459 54.1726H7.36843C7.20565 54.1717 7.0443 54.203 6.8937 54.2648C6.74309 54.3266 6.60623 54.4176 6.49101 54.5326C6.3758 54.6476 6.28452 54.7843 6.22245 54.9348C6.16038 55.0853 6.12875 55.2466 6.12939 55.4093C6.1297 55.5715 6.16204 55.732 6.22453 55.8817C6.28703 56.0313 6.37846 56.1672 6.49358 56.2814C6.6087 56.3957 6.74524 56.486 6.89537 56.5473C7.0455 56.6086 7.20626 56.6397 7.36843 56.6388H11.0591H52.941H56.6437C56.9691 56.6375 57.2808 56.5075 57.5107 56.2772C57.7406 56.0468 57.87 55.7348 57.8707 55.4093C57.8713 55.2476 57.8401 55.0873 57.7787 54.9376C57.7174 54.7879 57.6272 54.6517 57.5133 54.5369C57.3993 54.4221 57.2639 54.3308 57.1147 54.2683C56.9655 54.2058 56.8054 54.1733 56.6437 54.1726H56.4151C56.5541 53.7867 56.6437 53.3771 56.6437 52.9456V24.6114H59.0977C59.3212 24.6121 59.5407 24.5519 59.7326 24.4374C59.9246 24.3228 60.0817 24.1582 60.1873 23.9612C60.2929 23.7642 60.3428 23.5422 60.3319 23.319C60.3209 23.0957 60.2494 22.8797 60.125 22.694L50.268 7.91692C50.157 7.74786 50.0061 7.60865 49.8287 7.51172C49.6512 7.41479 49.4525 7.36308 49.2503 7.36108L14.7594 7.3612ZM15.4138 9.82479H48.5863L56.7976 22.1478H40.3726C40.7703 20.2182 40.8428 18.1044 40.6204 15.8275C40.5892 15.5106 40.4364 15.218 40.1942 15.0113C39.952 14.8045 39.6391 14.6995 39.3212 14.7184C38.0361 14.7989 36.9328 14.8991 35.9553 14.692C35.0794 14.5049 34.2362 14.0834 33.2776 13.0511C33.2014 12.8513 33.0746 12.6747 32.9095 12.5388C32.7015 12.3668 32.4429 12.2679 32.1733 12.2572C32.1484 12.2565 32.1235 12.2565 32.0987 12.2572C32.0899 12.2563 32.0811 12.2555 32.0722 12.2548V12.2572C32.0714 12.2572 32.0706 12.2572 32.0698 12.2572C31.7606 12.2407 31.4565 12.3412 31.2181 12.5388C31.0579 12.6709 30.9338 12.8413 30.8572 13.0343C29.8933 14.0796 29.053 14.5061 28.1722 14.6944C27.1948 14.9034 26.0938 14.801 24.8088 14.7208C24.4904 14.7013 24.1769 14.8059 23.9342 15.0128C23.6914 15.2196 23.5384 15.5126 23.5072 15.83C23.2848 18.1067 23.3552 20.2206 23.7502 22.1502H7.21205L15.4138 9.82479ZM32.065 15.3175C33.1639 16.3033 34.3163 16.8604 35.4381 17.1002C36.3812 17.3017 37.1804 17.1978 38.0196 17.1558C38.1459 19.9681 37.9706 22.5249 37.0284 24.4577C36.0267 26.5122 34.4285 28.1245 32.065 29.3273C29.7015 28.124 28.1009 26.5122 27.0992 24.4577C26.1569 22.5248 25.9721 19.9682 26.0984 17.1558C26.9385 17.1978 27.7452 17.3024 28.6895 17.1002C29.8113 16.8606 30.966 16.3033 32.065 15.3175ZM9.83207 24.6115H24.4792C24.6038 24.9256 24.7339 25.2385 24.881 25.5401C26.1496 28.1423 28.2789 30.2021 31.158 31.6222C31.2763 31.7343 31.4157 31.8218 31.5681 31.8796C31.7205 31.9374 31.8828 31.9644 32.0457 31.959C32.2182 31.9701 32.3911 31.9447 32.5532 31.8846C32.7153 31.8245 32.8629 31.731 32.9864 31.6101C35.8534 30.1903 37.9742 28.1327 39.2394 25.5376C39.3864 25.236 39.5164 24.9258 39.6412 24.6114H54.18V49.2453H39.3934V41.8616C39.72 41.8603 40.0328 41.7294 40.2629 41.4975C40.493 41.2656 40.6216 40.9517 40.6204 40.625V35.6953C40.619 35.3703 40.4893 35.059 40.2595 34.8292C40.0297 34.5994 39.7184 34.4697 39.3934 34.4684H24.6067C24.2817 34.4697 23.9703 34.5994 23.7405 34.8292C23.5107 35.059 23.381 35.3704 23.3797 35.6954V40.6251C23.3784 40.9518 23.507 41.2656 23.7371 41.4975C23.9672 41.7294 24.28 41.8604 24.6067 41.8617V49.2455H9.83207V24.6115ZM13.5227 34.4684C13.1977 34.4697 12.8864 34.5994 12.6565 34.8292C12.4267 35.059 12.297 35.3704 12.2957 35.6954V44.3157C12.1331 44.3151 11.972 44.3467 11.8217 44.4086C11.6714 44.4705 11.5348 44.5616 11.4199 44.6765C11.3049 44.7915 11.2138 44.9281 11.1519 45.0784C11.09 45.2287 11.0584 45.3899 11.0591 45.5524C11.0604 45.8791 11.1914 46.1919 11.4233 46.422C11.6552 46.6521 11.969 46.7807 12.2957 46.7794H20.916C21.2411 46.7782 21.5524 46.6485 21.7823 46.4187C22.0121 46.1888 22.1418 45.8775 22.1431 45.5524C22.1437 45.3907 22.1125 45.2304 22.0511 45.0807C21.9898 44.931 21.8996 44.7948 21.7857 44.68C21.6717 44.5652 21.5363 44.4739 21.3871 44.4114C21.2379 44.3489 21.0778 44.3164 20.916 44.3157V35.6954C20.9148 35.3704 20.7851 35.059 20.5552 34.8292C20.3254 34.5994 20.0141 34.4697 19.689 34.4684H13.5227ZM44.323 34.4684C44.1611 34.4675 44.0005 34.4985 43.8506 34.5597C43.7006 34.6208 43.5642 34.711 43.4491 34.8249C43.334 34.9389 43.2425 35.0745 43.1799 35.2239C43.1172 35.3733 43.0846 35.5335 43.084 35.6954V44.3157C42.9222 44.3164 42.7622 44.3489 42.613 44.4114C42.4638 44.4739 42.3283 44.5652 42.2144 44.68C42.1004 44.7948 42.0102 44.931 41.9489 45.0807C41.8876 45.2304 41.8564 45.3907 41.857 45.5524C41.8583 45.8775 41.988 46.1888 42.2178 46.4187C42.4476 46.6485 42.759 46.7782 43.084 46.7794H51.714C52.039 46.7782 52.3503 46.6485 52.5802 46.4187C52.81 46.1888 52.9397 45.8775 52.941 45.5524C52.9416 45.3907 52.9104 45.2304 52.8491 45.0807C52.7877 44.931 52.6975 44.7948 52.5836 44.68C52.4697 44.5652 52.3342 44.4739 52.185 44.4114C52.0358 44.3489 51.8757 44.3164 51.714 44.3157V35.6954C51.7127 35.3687 51.5816 35.056 51.3497 34.8259C51.1178 34.5958 50.804 34.4672 50.4773 34.4684H44.323ZM14.7594 36.9321H18.4524V44.3157H14.7594V36.9321ZM25.8457 36.9321H38.1663V39.3981H25.8457V36.9321ZM45.55 36.9321H49.2503V44.3157H45.55V36.9321ZM27.0727 41.8617H30.773V46.7794C30.6104 46.7788 30.4494 46.8104 30.299 46.8723C30.1487 46.9342 30.0121 47.0253 29.8972 47.1402C29.7822 47.2552 29.6911 47.3918 29.6292 47.5421C29.5673 47.6924 29.5358 47.8535 29.5364 48.016C29.5367 48.178 29.569 48.3383 29.6313 48.4878C29.6937 48.6373 29.7849 48.773 29.8997 48.8872C30.0146 49.0014 30.1509 49.0918 30.3007 49.1533C30.4506 49.2148 30.6111 49.2461 30.773 49.2455V54.1728H27.0727V41.8617ZM33.2367 41.8617H36.9297V54.1728H33.2367V49.2455C33.5621 49.2442 33.8738 49.1142 34.1037 48.8839C34.3336 48.6535 34.463 48.3415 34.4637 48.016C34.4643 47.8543 34.4331 47.694 34.3717 47.5443C34.3104 47.3946 34.2202 47.2584 34.1063 47.1436C33.9923 47.0288 33.8569 46.9376 33.7077 46.8751C33.5585 46.8126 33.3984 46.7801 33.2367 46.7794V41.8617ZM9.83207 51.7092H24.6067V54.1728H11.0591C10.3642 54.1728 9.83207 53.6407 9.83207 52.9458V51.7092ZM39.3934 51.7092H54.18V52.9458C54.18 53.6407 53.6359 54.1728 52.941 54.1728H39.3934V51.7092Z" fill="black"/>
</svg>
