<svg width="50" height="42" viewBox="0 0 50 42" fill="none" xmlns="http://www.w3.org/2000/svg">
<path d="M34.6484 0.707111C29.2773 -0.0936703 23.75 1.74227 19.8633 5.58992C19.4727 5.96102 19.4727 6.58602 19.8633 6.95711C20.2344 7.3282 20.8594 7.34774 21.2305 6.95711C24.6875 3.53914 29.5898 1.91805 34.375 2.62117C42.1875 3.77352 47.8711 10.5704 47.6172 18.4415C47.5977 19.047 47.5586 28.9688 47.5195 38.5782V39.379L37.8516 32.3477L37.3633 32.5235C34.7656 33.461 31.9531 33.6759 29.2187 33.1485C25.1367 32.3673 21.6016 30.004 19.2773 26.5274C18.9844 26.0782 18.3789 25.961 17.9297 26.254C17.4805 26.547 17.3633 27.1524 17.6562 27.6016C20.2734 31.5079 24.2383 34.1641 28.8477 35.043C31.7578 35.6095 34.7461 35.4141 37.5195 34.5157L46.6016 41.1173C46.9141 41.3321 47.2852 41.4493 47.6562 41.4493C47.9297 41.4493 48.2227 41.3907 48.4766 41.254C49.082 40.9415 49.4531 40.336 49.4531 39.672V38.5977C49.4727 32.7774 49.5312 19.1641 49.5508 18.5001C49.8437 9.65242 43.4375 1.99617 34.6484 0.707111Z" fill="black"/>
<path d="M9.375 37.543C8.57422 37.543 7.91016 38.207 7.91016 39.0273C7.91016 39.8281 8.57422 40.5117 9.375 40.5117C9.80469 40.5117 10.1758 40.3555 10.4492 40.0625C10.7227 39.7891 10.8789 39.3984 10.8594 38.9883C10.8594 38.168 10.2148 37.543 9.375 37.543Z" fill="black"/>
<path d="M19.5899 11.6445C17.9492 8.5 14.3555 6.46875 10.4297 6.46875C5.99611 6.46875 2.28517 8.94922 0.507824 13.1094C0.29298 13.5977 0.527355 14.1641 1.01564 14.3789C1.50392 14.5938 2.07032 14.3594 2.28517 13.8711C3.75001 10.4531 6.77735 8.40234 10.4102 8.40234C13.6328 8.40234 16.543 10.0234 17.832 12.5234C18.6719 14.2031 19.1992 16.8789 16.8555 20.1016C15.6836 21.7227 14.1602 22.8359 12.9297 23.7539C11.3281 24.9258 10.1367 25.8828 9.51173 27.2695C8.8672 28.6563 8.57423 30.6289 8.5547 33.4414C8.5547 33.9688 8.98439 34.418 9.51173 34.418C10.0391 34.418 10.4688 33.9883 10.4883 33.4609C10.5078 30.9219 10.7617 29.2227 11.2891 28.0703C11.7188 27.1133 12.6758 26.3711 14.1016 25.3164C15.4297 24.3398 17.0899 23.1094 18.4375 21.2734C21.5234 17.0156 20.4883 13.4219 19.5899 11.6445Z" fill="black"/>
</svg>
